M48
;GenerationSoftware,Autodesk,EAGLE,9.6.2*%
;CreationDate,2021-01-01T15:46:44Z*%
FMAT,2
ICI,OFF
METRIC,TZ,000.000
T2C0.350
T1C1.016
%
G90
M71
T1
X11430Y31750
X1270Y6350
X1270Y3810
X1270Y1270
X6350Y3810
X11430Y3810
X3810Y3810
X8890Y7620
X6350Y7620
X11430Y34290
X3810Y7620
X11430Y29210
X11430Y26670
X11430Y24130
X11430Y21590
X11430Y19050
X11430Y16510
X11430Y13970
X11430Y11430
X11430Y8890
X11430Y6350
X8890Y3810
X11430Y1270
X1270Y34290
X1270Y31750
X1270Y29210
X1270Y26670
X1270Y24130
X1270Y21590
X1270Y19050
X1270Y16510
X1270Y13970
X1270Y11430
X1270Y8890
T2
X8255Y33655
X7620Y24765
X4445Y25717
X6985Y18415
X7144Y33655
X7620Y17145
X6350Y17145
X4445Y33655
X9843Y15240
M30