G04 EAGLE Gerber RS-274X export*
G75*
%MOMM*%
%FSLAX34Y34*%
%LPD*%
%INSoldermask Top*%
%IPPOS*%
%AMOC8*
5,1,8,0,0,1.08239X$1,22.5*%
G01*
%ADD10R,1.753200X0.803200*%
%ADD11C,2.082800*%
%ADD12R,1.403200X1.003200*%
%ADD13R,1.403200X1.403200*%
%ADD14C,1.473200*%


D10*
X36500Y247650D03*
X36500Y234950D03*
X36500Y222250D03*
X36500Y209550D03*
X36500Y196850D03*
X36500Y184150D03*
X36500Y171450D03*
X90500Y171450D03*
X90500Y184150D03*
X90500Y196850D03*
X90500Y209550D03*
X90500Y222250D03*
X90500Y234950D03*
X90500Y247650D03*
D11*
X114300Y342900D03*
X114300Y317500D03*
X114300Y292100D03*
X114300Y266700D03*
X114300Y241300D03*
X114300Y215900D03*
X114300Y190500D03*
X114300Y165100D03*
X114300Y139700D03*
X114300Y114300D03*
X114300Y88900D03*
X114300Y63500D03*
X114300Y38100D03*
X114300Y12700D03*
D12*
X82550Y288400D03*
X82550Y270400D03*
X63500Y288400D03*
X63500Y270400D03*
D13*
X44450Y289900D03*
X44450Y268900D03*
D12*
X82550Y326500D03*
X82550Y308500D03*
D11*
X12700Y342900D03*
X12700Y317500D03*
X12700Y292100D03*
X12700Y266700D03*
X12700Y241300D03*
X12700Y215900D03*
X12700Y190500D03*
X12700Y165100D03*
X12700Y139700D03*
X12700Y114300D03*
X12700Y88900D03*
X12700Y63500D03*
X12700Y38100D03*
X12700Y12700D03*
D12*
X44450Y326500D03*
X44450Y308500D03*
X63500Y326500D03*
X63500Y308500D03*
D14*
X88900Y120650D03*
X63500Y120650D03*
X38100Y120650D03*
D11*
X88900Y38100D03*
X63500Y38100D03*
X38100Y38100D03*
X88900Y76200D03*
X63500Y76200D03*
X38100Y76200D03*
M02*
